<svg width="30" height="30" viewBox="0 0 30 30" fill="none" xmlns="http://www.w3.org/2000/svg">
<path d="M14.7871 7.6523C14.8792 7.48429 15.1209 7.48429 15.2129 7.6523L17.0957 11.0966L19.2295 10.4785C19.4136 10.4251 19.5843 10.5965 19.5303 10.7802L18.8985 12.913L22.3741 14.8134C22.5421 14.9055 22.5421 15.1472 22.3741 15.2392L18.9297 17.1211L19.5303 19.1484C19.5847 19.3323 19.4137 19.5036 19.2295 19.4502L17.1543 18.8476L15.2129 22.4003C15.1209 22.5684 14.8792 22.5684 14.7871 22.4003L12.8448 18.8476L10.7705 19.4502C10.5864 19.5036 10.4154 19.3323 10.4698 19.1484L11.0694 17.1211L7.62601 15.2392C7.458 15.1472 7.458 14.9055 7.62601 14.8134L11.1006 12.913L10.4698 10.7802C10.4157 10.5965 10.5865 10.4251 10.7705 10.4785L12.9034 11.0966L14.7871 7.6523ZM15.2334 12.6914C15.1414 12.5231 14.8997 12.5231 14.8077 12.6914L14.0498 14.0761L12.6651 14.8339C12.4968 14.926 12.4968 15.1677 12.6651 15.2597L14.0498 16.0166L14.8077 17.4023C14.8997 17.5703 15.1414 17.5704 15.2334 17.4023L15.9903 16.0166L17.376 15.2597C17.5441 15.1677 17.544 14.926 17.376 14.8339L15.9903 14.0761L15.2334 12.6914Z" fill="white"/>
</svg>
