<svg width="30" height="30" viewBox="0 0 30 30" fill="none" xmlns="http://www.w3.org/2000/svg">
<path d="M11.6904 8C12.2729 8 12.7843 8.30187 13.0791 8.75684C13.1249 8.75303 13.171 8.75001 13.2178 8.75C13.3255 8.75 13.4312 8.76061 13.5332 8.78027C13.8353 8.45469 14.266 8.2501 14.7451 8.25C15.4261 8.25 16.0099 8.66212 16.2637 9.25C16.2666 9.24998 16.2695 9.25 16.2725 9.25C16.3899 9.25 16.5047 9.2619 16.6152 9.28516C16.8802 9.1048 17.2012 9 17.5459 9C18.2609 9.00019 18.8676 9.45467 19.0986 10.0898C19.2247 10.1329 19.3439 10.1902 19.4541 10.2607C19.7114 10.0959 20.0174 10 20.3457 10C21.2593 10.0001 21.9999 10.7407 22 11.6543V16.7061C22 16.749 21.9974 16.7916 21.9941 16.834C21.873 20.258 18.7892 23 15 23C11.134 23 8 20.1458 8 16.625C8 14.9256 8.73072 13.3821 9.9209 12.2393C9.91794 13.8944 9.94554 15.6053 10.0742 15.5791C10.4189 15.5005 10.1499 10.3919 10.0859 9.25488C10.2648 8.53448 10.9148 8.00022 11.6904 8Z" fill="white"/>
</svg>
