<svg width="30" height="30" viewBox="0 0 30 30" fill="none" xmlns="http://www.w3.org/2000/svg">
<path d="M14.3336 8C14.3543 8.01837 15.6823 9.1989 16.0552 10.7197C16.431 12.2525 15.1867 14.3396 16.7486 14.2578C18.3103 14.176 16.9527 11.7676 16.9527 11.7676C16.9527 11.7676 20.4957 13.6299 20.231 16.8867C19.9673 20.1314 16.3854 20.8783 16.3589 20.8838C16.3709 20.8739 17.3027 20.1053 17.4849 19.4404C17.668 18.7712 17.313 17.3945 17.313 17.3945C17.313 17.3945 17.0554 18.5152 16.6529 18.9297C16.3094 19.283 15.8882 19.5264 15.2847 19.5908C15.7778 19.351 16.1177 18.8528 16.1177 18.2754C16.1175 17.4648 15.4491 16.8079 14.6246 16.8076C13.7998 16.8076 13.1306 17.4647 13.1304 18.2754C13.1304 18.4963 13.1812 18.7056 13.2701 18.8936C12.7548 18.4825 12.6724 17.8252 12.6724 17.8252C12.6724 17.8252 12.0967 20.2176 13.6841 21.3428C15.2716 22.4677 18.3814 21.501 18.3814 21.501C18.3814 21.501 13.931 24.6316 10.6334 21.2236C7.79286 18.2879 9.89215 14.4229 9.89215 14.4229C9.89215 14.4229 9.80133 14.782 9.80133 15.1982C9.80142 15.6097 10.022 15.9237 10.0269 15.9307C10.0356 15.9123 10.7037 14.5078 11.2242 13.9346C12.1016 12.9684 13.3721 12.3249 13.8707 11.7676C15.0601 10.4376 14.3394 8.01965 14.3336 8Z" fill="white"/>
</svg>
