<svg width="30" height="30" viewBox="0 0 30 30" fill="none" xmlns="http://www.w3.org/2000/svg">
<path d="M20.5839 8.72698C20.5839 8.72698 22.1457 17.1655 19.2022 20.1091C16.6634 22.6477 13.634 22.5921 11.3073 20.9881L13.3381 18.4918L16.9434 17.7122L13.9997 17.4173L15.8703 15.5094L17.9999 15.0426L16.3164 14.5427L17.9999 11.5002L15.6052 14.1905L14.6798 12.884L15.0058 15.0426L13.3374 16.9264L12.5641 14.5427V17.7122L10.4621 20.31C10.3913 20.2442 10.3203 20.1779 10.2515 20.1091C7.84931 17.7069 7.94977 13.5386 10.7383 11.1452C13.5183 8.75936 20.5402 8.72716 20.5839 8.72698Z" fill="white"/>
</svg>
