<svg width="30" height="30" viewBox="0 0 30 30" fill="none" xmlns="http://www.w3.org/2000/svg">
<path d="M12.5289 12.2871C12.6683 12.2871 12.7657 12.4256 12.7183 12.5566L10.0699 19.8672C10.0411 19.9467 9.96597 19.9999 9.8814 20H7.69781C7.55758 19.9999 7.46032 19.8599 7.50933 19.7285L10.2476 12.418C10.277 12.3395 10.3523 12.2872 10.4361 12.2871H12.5289ZM18.6226 9C18.7079 9.0002 18.7839 9.0542 18.8121 9.13477L22.4918 19.6895C22.5373 19.8201 22.4407 19.9569 22.3023 19.957H10.8687C10.8079 19.957 10.7655 19.8972 10.7857 19.8398L14.5738 9.13379C14.6022 9.05365 14.6782 9.00015 14.7632 9H18.6226Z" fill="white"/>
</svg>
