<svg width="30" height="30" viewBox="0 0 30 30" fill="none" xmlns="http://www.w3.org/2000/svg">
<path d="M15 7.5C19.1421 7.5 22.5 10.4642 22.5 14.1201C22.4998 16.0663 21.5473 17.8153 20.0322 19.0264C20.0958 19.2863 20.1318 19.5641 20.1318 19.8525C20.1317 21.3146 19.248 22.4998 18.1582 22.5C17.5112 22.5 16.939 22.0809 16.5791 21.4355C16.2192 22.081 15.6471 22.5 15 22.5C14.29 22.5 13.67 21.996 13.3223 21.2412C12.9745 21.9959 12.3545 22.5 11.6445 22.5C10.5547 22.4999 9.67106 21.3146 9.6709 19.8525C9.6709 19.514 9.71935 19.1902 9.80566 18.8926C8.38527 17.6881 7.50015 15.9959 7.5 14.1201C7.5 10.4642 10.8579 7.5 15 7.5ZM14.9014 10.8906C12.4488 10.8906 10.4609 12.3949 10.4609 14.251C10.461 16.107 12.4488 17.6113 14.9014 17.6113C17.3539 17.6113 19.3418 16.107 19.3418 14.251C19.3418 12.3949 17.3539 10.8906 14.9014 10.8906Z" fill="white"/>
</svg>
