<svg width="30" height="30" viewBox="0 0 30 30" fill="none" xmlns="http://www.w3.org/2000/svg">
<path d="M17.9932 16.0303C18.0769 15.973 18.1914 15.9949 18.248 16.0791L19.54 18.001C19.5951 18.0829 19.5753 18.1944 19.4951 18.252L15.7393 20.9463C15.6919 20.9802 15.6305 20.9888 15.5752 20.9707L12.3271 19.9072L17.9932 16.0303ZM18.4043 10.0254C18.5156 10.0256 18.6012 10.1242 18.585 10.2344L17.8945 14.8633C17.887 14.913 17.8597 14.9577 17.8184 14.9863L11.1318 19.6025C11.085 19.6347 11.0257 19.6427 10.9717 19.625L8.12598 18.6953C8.05092 18.6708 8.00005 18.6004 8 18.5215V15.5986C8 15.5561 8.01483 15.5142 8.04199 15.4814L12.5107 10.0908C12.5454 10.0491 12.5971 10.0254 12.6514 10.0254H18.4043ZM19.8555 10C19.935 10.0002 20.0063 10.0521 20.0303 10.1279L21.9619 16.2432C21.9848 16.3158 21.9603 16.3954 21.9004 16.4424L20.6611 17.4102C20.58 17.4735 20.4623 17.457 20.4014 17.374L18.8535 15.2656C18.8243 15.2258 18.812 15.1757 18.8203 15.127L19.6738 10.1514C19.689 10.0639 19.7666 10 19.8555 10Z" fill="white"/>
</svg>
