<svg width="30" height="30" viewBox="0 0 30 30" fill="none" xmlns="http://www.w3.org/2000/svg">
<path d="M18.5772 8.5C18.7101 8.5 18.8329 8.57069 18.8995 8.68555L22.4483 14.8174C22.5151 14.9329 22.5152 15.075 22.4483 15.1904L18.8995 21.3145C18.8329 21.4293 18.71 21.5 18.5772 21.5H11.461C11.3288 21.5 11.2066 21.4295 11.1397 21.3154L7.55088 15.1914C7.48308 15.0753 7.483 14.9315 7.55088 14.8154L11.1397 8.68457C11.2066 8.5704 11.3287 8.50001 11.461 8.5H18.5772ZM15.0001 11.5C13.0671 11.5 11.5001 13.067 11.5001 15C11.5001 16.933 13.0671 18.5 15.0001 18.5C16.9331 18.5 18.5001 16.933 18.5001 15C18.5001 13.067 16.9331 11.5 15.0001 11.5Z" fill="white"/>
</svg>
